# xmcd
#
# Track frame offsets:
#	150
#	18486
#	38835
#	62441
#	99779
#	119036
#
# Disc length: 1843 seconds
#
# Revision: 0
# Processed by: cddbd v1.5.2PL0 Copyright (c) Steve Scherf et al.
# Submitted via: EasyCDDAExtractor 12.0.1.1
#
DISCID=44073106
DTITLE=Various Artist - Street Symphony (Right Here Waiting)
DYEAR=1900
DGENRE=
TTITLE0=Monica - Street Symphony (Radio Edit)
TTITLE1=Monica (Feat. 112) - Right Here Waiting
TTITLE2=Monica (Feat. Majic) - Street Symphony (Extended Version - With Rap)
TTITLE3=Monica - Inside (Masters At Work Club Mix)
TTITLE4=Monica (Feat. Majic, Big Gipp and JT Money) - Street Symphony (Cyptron Z
TTITLE4=one III Remix)
TTITLE5=Monica - Street Symphony (Bonus Track)
EXTD=
EXTT0=
EXTT1=
EXTT2=
EXTT3=
EXTT4=
EXTT5=
PLAYORDER=
